<svg width="1584" height="396" viewBox="0 0 1584 396" fill="none" xmlns="http://www.w3.org/2000/svg">
  <!-- Fundo gradiente -->
  <rect width="1584" height="396" fill="url(#gradientBackground)"/>
  
  <!-- Decoração com pontos (padrão de pontos) -->
  <g opacity="0.1">
    <pattern id="dots" x="0" y="0" width="20" height="20" patternUnits="userSpaceOnUse">
      <circle cx="2" cy="2" r="1" fill="#0f0f0f"/>
    </pattern>
    <rect width="1584" height="396" fill="url(#dots)"/>
  </g>
  
  <!-- Formas decorativas -->
  <circle cx="150" cy="200" r="80" fill="url(#purpleGradient)" opacity="0.2"/>
  <circle cx="1400" cy="100" r="120" fill="url(#blueGradient)" opacity="0.15"/>
  <circle cx="1200" cy="300" r="50" fill="url(#purpleGradient)" opacity="0.15"/>
  
  <!-- Círculos decorativos menores -->
  <circle cx="250" cy="100" r="10" fill="#0fa3b1" opacity="0.6"/>
  <circle cx="1100" cy="200" r="8" fill="#7b2cbf" opacity="0.6"/>
  <circle cx="400" cy="320" r="15" fill="#0fa3b1" opacity="0.4"/>
  <circle cx="1300" cy="240" r="12" fill="#7b2cbf" opacity="0.5"/>
  
  <!-- Linha decorativa na parte superior -->
  <rect x="0" y="0" width="1584" height="4" fill="url(#lineGradient)"/>
  
  <!-- Área reservada para texto - retângulos indicativos -->
  <rect x="100" y="120" width="500" height="60" fill="none" stroke="#0fa3b1" stroke-width="1" opacity="0.3"/>
  <rect x="100" y="190" width="300" height="30" fill="none" stroke="#7b2cbf" stroke-width="1" opacity="0.3"/>
  
  <!-- Ícones minimalistas de tecnologias -->
  <!-- React-like -->
  <g transform="translate(800, 200) scale(0.7)" opacity="0.5">
    <circle cx="0" cy="0" r="10" fill="#0fa3b1"/>
    <ellipse cx="0" cy="0" rx="50" ry="20" fill="none" stroke="#0fa3b1" stroke-width="4" transform="rotate(0)"/>
    <ellipse cx="0" cy="0" rx="50" ry="20" fill="none" stroke="#0fa3b1" stroke-width="4" transform="rotate(60)"/>
    <ellipse cx="0" cy="0" rx="50" ry="20" fill="none" stroke="#0fa3b1" stroke-width="4" transform="rotate(120)"/>
  </g>
  
  <!-- Code brackets -->
  <g transform="translate(900, 200)" opacity="0.5">
    <path d="M0,0 L-20,25 L0,50" fill="none" stroke="#7b2cbf" stroke-width="4"/>
    <path d="M40,0 L60,25 L40,50" fill="none" stroke="#7b2cbf" stroke-width="4"/>
  </g>
  
  <!-- Definições de gradientes -->
  <defs>
    <linearGradient id="gradientBackground" x1="0" y1="0" x2="1584" y2="396" gradientUnits="userSpaceOnUse">
      <stop offset="0" stop-color="#fafafa"/>
      <stop offset="1" stop-color="#f5f5f5"/>
    </linearGradient>
    
    <linearGradient id="purpleGradient" x1="0" y1="0" x2="100" y2="100" gradientUnits="userSpaceOnUse">
      <stop offset="0" stop-color="#7b2cbf"/>
      <stop offset="1" stop-color="#c084fc"/>
    </linearGradient>
    
    <linearGradient id="blueGradient" x1="0" y1="0" x2="100" y2="100" gradientUnits="userSpaceOnUse">
      <stop offset="0" stop-color="#0fa3b1"/>
      <stop offset="1" stop-color="#58a6ff"/>
    </linearGradient>
    
    <linearGradient id="lineGradient" x1="0" y1="0" x2="1584" y2="0" gradientUnits="userSpaceOnUse">
      <stop offset="0" stop-color="#0fa3b1"/>
      <stop offset="0.5" stop-color="#7b2cbf"/>
      <stop offset="1" stop-color="#58a6ff"/>
    </linearGradient>
  </defs>
</svg> 